<svg height="300" width="300" xmlns="http://www.w3.org/2000/svg" viewBox="0 0 100 100">
    <path d="M32.467 87.32a4.45 4.45 0 00.547-.777c1.186-3.174 3.437-5.64 5.447-8.27.737-.966 1.403-1.986 2.09-2.989a1.19 1.19 0 00.22-.546c.128-1.704.295-3.41.328-5.116a9.64 9.64 0 00-.348-2.68c-.74-2.719-1.597-5.405-2.33-8.126-.312-1.152-.785-2.364-.21-3.553a6.362 6.362 0 011.401-2.101c1.347-1.147 2.056-1.105 3.136.273a9.052 9.052 0 011.708 3.265 25.58 25.58 0 01.384 4.49c.021.333-.079.673-.06 1.006a13.74 13.74 0 01-1.394 6.328c-.647 1.49-1.053 3.083-1.567 4.63l.287.162c.786-.918 1.61-1.807 2.349-2.762a233.28 233.28 0 003.806-5.1 31.177 31.177 0 002.347-3.39c.954-1.756.773-3.732.703-5.645-.068-1.887-.256-3.769-.368-5.654a1.24 1.24 0 00-1.022-1.398 1.38 1.38 0 01-.771-.573c-.573-.871.099-2.894 1.019-3.094a1.912 1.912 0 011.95.982 1.56 1.56 0 01.099 1.96 1.412 1.412 0 00-.363.576c.103 1.588.252 3.173.403 4.93a19.967 19.967 0 001.88-3.41c.213-.651-.254-1.523-.45-2.463a7.325 7.325 0 011.453-.57 1.194 1.194 0 011.368 1.748 16.78 16.78 0 01-1.318 1.563 26.166 26.166 0 00-1.426 2.373c-.43.787-.38 1.84-1.333 2.343a.669.669 0 00-.12.472c-.01.97-.005 1.942-.005 3.182a10.602 10.602 0 001.023-1.101 48.395 48.395 0 004.508-7.863 70.326 70.326 0 013.368-6.543 3.687 3.687 0 00.035-3.735c-.854-1.642-1.996-3.156-2.689-4.857a32.736 32.736 0 01-1.485-5.507 1.498 1.498 0 01.58-1.318 2.297 2.297 0 011.757.086 5.022 5.022 0 012.366 4.127c.236 1.972.433 3.949.664 5.921a1.795 1.795 0 00.431.95c.483-1.517.97-3.033 1.447-4.553a23.033 23.033 0 01.778-2.498 4.652 4.652 0 00.11-4c-.847-1.865-1.771-3.697-2.58-5.58a10.169 10.169 0 01-.67-2.526 1.725 1.725 0 01.904-1.973 1.959 1.959 0 012.165.355 5.53 5.53 0 012.238 4.349 1.798 1.798 0 00.237.985c.176-.423.372-.84.525-1.27.615-1.735 1.297-3.466.971-5.365-.212-1.234-.215-2.55-1.755-3.116-.855-.314-1.07-2.571-.31-3.004a2.123 2.123 0 011.666-.146 1.462 1.462 0 01.64 2.014 1.504 1.504 0 00.344 1.893c.143-.501.276-.98.415-1.456.604-2.057 1.143-4.135 1.836-6.16.472-1.378-.225-2.58-.32-3.866-.036-.477-.44-.945.164-1.353a2.124 2.124 0 012.266-.32 1.71 1.71 0 01.873 2.307c-.317.681-.925 1.222-1.28 1.89a11.969 11.969 0 00-.852 2.18c-.522 1.737-1 3.488-1.483 5.237a1.46 1.46 0 00.06.958c.222-.264.442-.53.67-.79.462-.528.968-1.025 1.383-1.588.316-.43.48-.971.784-1.413a4.462 4.462 0 011.035-1.162 1.475 1.475 0 012.017.265 2.054 2.054 0 01.383 1.548 2.133 2.133 0 01-2.796 1.488.92.92 0 00-.781.139c-1.772 1.882-3.51 3.779-3.882 6.52-.143 1.049-.518 2.066-.613 3.236.246-.268.477-.552.742-.8a6.674 6.674 0 011.666-1.418 2.474 2.474 0 011.868.069 1.779 1.779 0 01.813 2.023 4.808 4.808 0 01-3.285 3.785 3.766 3.766 0 01-1.469.355c-1.496-.092-2.132.838-2.51 2.024-1.318 4.127-2.595 8.268-3.88 12.405a1.173 1.173 0 00.055.38 4.101 4.101 0 00.637-.22c1.389-.758 2.818-1.457 4.137-2.324a7.22 7.22 0 001.751-1.851c.336-.466.529-1.191 1.202-.965a3.465 3.465 0 011.724 1.194 1.673 1.673 0 01-.223 1.609c-1.135 1.052-1.722 1.69-3.154.828a2.102 2.102 0 00-1.416.305c-.872.38-1.708.842-2.767 1.374.958.535 1.56.687 2.28.134a2.942 2.942 0 011.469-.51 1.127 1.127 0 011.402.981 2.716 2.716 0 01-.861 1.869 1.338 1.338 0 01-1.977-.211 3.086 3.086 0 00-4.906-.075 61.36 61.36 0 00-3.363 5.583 28.132 28.132 0 00-1.235 2.758c-.099.229-.142.482-.296 1.022a29.06 29.06 0 012.768-2.212c1.92-1.172 3.862-2.326 5.884-3.303 1.896-.916 3.42-.51 4.379.87a4.151 4.151 0 01-.34 4.96 8.364 8.364 0 01-6.646 2.816 13.65 13.65 0 00-7.06 1.621c-1.6.947-3.273 1.678-4.363 3.312-1.658 2.486-3.387 4.926-5.135 7.35-.897 1.245-1.9 2.413-3.037 3.846 1.725-.86 3.168-1.625 4.65-2.305a42.66 42.66 0 014.734-1.974 4.829 4.829 0 002.828-2.325c.621-1.056 1.572-1.149 2.78-.354a1.785 1.785 0 01.623 2.471 3.067 3.067 0 01-2.91.97 5.495 5.495 0 00-3.81.502c-2.322.98-4.626 2.016-6.872 3.16a17.197 17.197 0 00-7.239 6.408c-.804 1.339-1.784 2.572-2.684 3.853l.223.243c1.205-.755 2.395-1.534 3.617-2.26 2.017-1.197 4.022-2.423 6.095-3.517a18.708 18.708 0 014.074-1.659 6.023 6.023 0 014.78 1.146c1.908 1.256 1.715 3.63-.212 4.83-2.984 1.858-6.35 2.502-9.712 3.095-1.879.332-3.838.19-5.729.477-2.575.391-5.03 1.113-6.594 3.517a26.352 26.352 0 00-3.353 7.554 10.58 10.58 0 00-.05 1.303 1.361 1.361 0 01-.43.76c-.89-1.693-.194-3.206.348-4.7.389-1.073.956-2.08 1.405-3.133a2.568 2.568 0 00.215-1.066 17.797 17.797 0 00-3.417-9.853c-1.32-1.858-3.217-3.315-3.971-5.565-.617-1.84-1.456-3.644-1.203-5.667a3.266 3.266 0 011.943-2.958 3.218 3.218 0 013.821 1.092 15.856 15.856 0 012.65 4.129 23.67 23.67 0 011.364 11.017 15.366 15.366 0 00.195 5.774zm3.843-2.704c1.67-.21 3.516-.38 5.34-.685 3.106-.52 6.229-1 9.283-1.748a12.303 12.303 0 003.833-1.971 1.576 1.576 0 00-.187-2.645 5.507 5.507 0 00-4.029-.94 15.377 15.377 0 00-5.34 2.28c-2.132 1.208-4.184 2.562-6.252 3.882-.97.62-1.897 1.306-2.648 1.827zm-5.288-1.169c-.015.086.024-.036.025-.158.023-2.385.175-4.778.03-7.153a14.419 14.419 0 00-3.294-8.626 2.391 2.391 0 00-3.048-.874 2.741 2.741 0 00-1.225 2.694 13.711 13.711 0 002.555 6.593c.996 1.226 2.025 2.437 2.893 3.751.802 1.215 1.41 2.558 2.064 3.773zm25.484-26.923a31.292 31.292 0 013.796-1.13 36.602 36.602 0 014.123-.252c2.448-.14 4.543-.908 5.737-3.26a2.61 2.61 0 00-.466-3.068 2.189 2.189 0 00-2.61-.318c-.65.343-1.35.591-2.008.92a22.802 22.802 0 00-8.572 7.108zM42.071 68.54a.725.725 0 00.21-.135c1.677-2.994 1.725-6.272 1.508-9.544a13.86 13.86 0 00-1.021-3.783c-.568-1.531-2.203-1.834-2.953-.507a4.572 4.572 0 00-.523 2.857c.4 2.134 1.126 4.204 1.67 6.314.408 1.581.738 3.183 1.109 4.798zm19.227-30.7c-.195-1.663-.28-3.35-.625-4.982a12.169 12.169 0 00-1.28-2.98 2.02 2.02 0 00-.919-.433 2.5 2.5 0 00-.289.886 13.883 13.883 0 003.113 7.51zm4.423-10.936l.404-.057c0-1.26.069-2.524-.02-3.777a3.843 3.843 0 00-1.443-3.094 1.499 1.499 0 00-.989-.368 1.526 1.526 0 00-.45 1.072c.013 2.414 1.753 4.108 2.498 6.224zm3.562-1.643c2.48.234 3.64-.964 4.079-2.289a3.724 3.724 0 00-.125-1.413 2.899 2.899 0 00-1.312.374c-.944 1.053-1.771 2.21-2.642 3.328zM57.914 68.1l1.22-1.248a4.1 4.1 0 00-.864-.767 4.11 4.11 0 00-1.082 1.125 4.513 4.513 0 00.726.89zM73.246 2.514a3.769 3.769 0 00-.84 1.325 1.089 1.089 0 00.793.752 1.16 1.16 0 00.776-.81 3.326 3.326 0 00-.729-1.267zm-2.762 36.45q.18.117.362.232l1.653-1.185a6.11 6.11 0 00-1.354-.497 7.6 7.6 0 00-.661 1.45zm5.31-26.715a7.218 7.218 0 00.823-1.33 1.168 1.168 0 00-.767-.51 1.093 1.093 0 00-.666.75 2.834 2.834 0 00.61 1.09zM50.557 46.487a3.433 3.433 0 00-.535 1.202 1.734 1.734 0 00.695.613 2.154 2.154 0 00.612-.836 2.743 2.743 0 00-.772-.979zM68.9 12.757a2.593 2.593 0 00-1.006-.638.942.942 0 00-.619.693.924.924 0 00.658.641 2.61 2.61 0 00.967-.696zm1.057 29.8a2.502 2.502 0 00-.925-.437 3.57 3.57 0 00-.71.798 1.41 1.41 0 00.541.402 6.32 6.32 0 001.094-.763z"/>
</svg>